<?xml version="1.0" encoding="UTF-8"?> <svg xmlns="http://www.w3.org/2000/svg" viewBox="0 0 306.51 90"> <defs> <style>.a{fill:#e8253d;}.b{fill:#fff;}.c{fill:#3c4853;}</style> </defs> <rect class="a" x="178.76" width="127.76" height="90"></rect> <path class="b" d="M500,272h19.61c23.83.07,23.55,34.37.07,34.37h-9.42v15.4H500Zm19.61,24.67c10,0,10.19-14.27,0-14.27h-9.35v14.27Z" transform="translate(-238.24 -252)"></path> <path class="b" d="M479.61,272H460v32.92l6,16.85h4.22v-15.4h9.42C503.16,306.37,503.44,272.07,479.61,272Zm0,24.67h-9.35V282.4h9.35C489.8,282.4,489.66,296.67,479.61,296.67Z" transform="translate(-238.24 -252)"></path> <path class="c" d="M247.17,329.6v8.49c0,2.47-2.23,3.75-4.48,3.75a4.3,4.3,0,0,1-4.45-3.29l1.45-.29a2.88,2.88,0,0,0,3,2.15c1.5,0,3-.79,3-2.37v-7h-3.95V329.6Z" transform="translate(-238.24 -252)"></path> <path class="c" d="M270.43,341.67h-1.54l-1.43-3.87h-4.75c-.46,1.26-1,2.61-1.4,3.87h-1.55l4.43-12.07H266Zm-3.47-5.3c-.68-1.86-1.19-3.31-1.88-5.23-.63,1.77-1.22,3.42-1.89,5.23Z" transform="translate(-238.24 -252)"></path> <path class="c" d="M283.37,329.6h4.7a3.87,3.87,0,1,1,0,7.72h-3.28v4.35h-1.44Zm4.7,6.29a2.44,2.44,0,1,0,0-4.85h-3.26v4.85Z" transform="translate(-238.24 -252)"></path> <path class="c" d="M314.07,341.67h-1.54l-1.42-3.87h-4.76c-.45,1.26-1,2.61-1.4,3.87H303.4l4.43-12.07h1.78Zm-3.47-5.3c-.68-1.86-1.18-3.31-1.88-5.23-.63,1.77-1.22,3.42-1.88,5.23Z" transform="translate(-238.24 -252)"></path> <path class="c" d="M334.92,329.6h1.47v12.07h-1.85l-6.07-9.56v9.56H327V329.6h1.57l6.34,10Z" transform="translate(-238.24 -252)"></path> <path class="c" d="M352,334.92H358v1.43H352v3.89h6.45v1.43h-7.91V329.6h7.91V331H352Z" transform="translate(-238.24 -252)"></path> <path class="c" d="M376.09,334.72c2.14.4,4.5.85,4.34,3.81-.12,2.22-2.28,3.31-4.48,3.31a4.91,4.91,0,0,1-4.58-2.59l1.34-.6a3.54,3.54,0,0,0,3.28,1.78c1.46,0,2.89-.65,3-2,.15-1.74-1.49-2.05-3.23-2.41-2-.41-4.09-1-4.11-3.39.12-2.11,2.21-3.24,4.34-3.24a4.83,4.83,0,0,1,4.51,2.53l-1.32.58a3.46,3.46,0,0,0-3.19-1.73c-1.43,0-2.81.63-2.89,1.91C373,334.17,374.47,334.41,376.09,334.72Z" transform="translate(-238.24 -252)"></path> <path class="c" d="M395.52,334.92h5.94v1.43h-5.94v3.89H402v1.43h-7.91V329.6H402V331h-6.44Z" transform="translate(-238.24 -252)"></path> <path class="c" d="M238.27,272.15H248.4v39h21.07v10.3h-31.2Z" transform="translate(-238.24 -252)"></path> <path class="c" d="M314.59,321.4H304l-4.27-11.27H285.17l-4.06,11.27H270.3l17.08-49.25h9.71Zm-26.87-20.66h9.37L294,290l-1.51-7H292l-1.51,7.1Z" transform="translate(-238.24 -252)"></path> <path class="c" d="M348,307.76c-.55-3.2-1.38-9.38-1.45-10.43V272.15h10.13V321.4H345.85L331,295.52l-3-6.67-.69.14,1.31,8.41v24H318.44V272.15h10L343.85,299l3.45,8.9Z" transform="translate(-238.24 -252)"></path> <path class="c" d="M391.93,286.27c-1.59-3.75-5.44-5.42-9.23-5.42-4.41,0-8.68,2.43-8.68,6.81v17.95c0,4.38,4.48,6.54,9,6.54s9.16-2.16,9.16-6.54v-2.37H381.11V293.3h21v12.31c0,10.92-9.5,16.41-19,16.48S364,316.67,364,305.61V287.66c0-10.78,9.51-16.2,19-16.2,6.62,0,13.44,2.71,17.15,10.43Z" transform="translate(-238.24 -252)"></path> <path class="b" d="M441.75,272h-9.91L416,317.2V342h2.6l11-31.62h14.83l4.36,11.39H459.6Zm-9.56,28.89,4.48-17.12,5.08,17.12Z" transform="translate(-238.24 -252)"></path> </svg> 