<svg xmlns="http://www.w3.org/2000/svg" width="68" height="51" viewBox="0 0 68 51">
    <g fill="#F1B263" fill-rule="evenodd">
        <path d="M13 11h6c.552 0 1 .448 1 1v39h-8V12c0-.552.448-1 1-1zM1 42h6c.552 0 1 .448 1 1v8H0v-8c0-.552.448-1 1-1zM25 25h6c.552 0 1 .448 1 1v25h-8V26c0-.552.448-1 1-1zM37 34h6c.552 0 1 .448 1 1v16h-8V35c0-.552.448-1 1-1zM49 15h6c.552 0 1 .448 1 1v35h-8V16c0-.552.448-1 1-1z" opacity=".4"/>
        <path d="M61 0h6c.552 0 1 .448 1 1v50h-8V1c0-.552.448-1 1-1z"/>
    </g>
</svg>
