<svg width="24" height="24" viewBox="0 0 24 24" fill="none" xmlns="http://www.w3.org/2000/svg">
<path d="M21 7V17C21 20 19.5 22 16 22H8C4.5 22 3 20 3 17V7C3 4 4.5 2 8 2H16C19.5 2 21 4 21 7Z" stroke="#FF8289" stroke-width="1.5" stroke-miterlimit="10" stroke-linecap="round" stroke-linejoin="round"/>
<path d="M14.5 4.5V6.5C14.5 7.6 15.4 8.5 16.5 8.5H18.5" stroke="#FF8289" stroke-width="1.5" stroke-miterlimit="10" stroke-linecap="round" stroke-linejoin="round"/>
<path d="M9.2 18.4C10.9673 18.4 12.4 16.9673 12.4 15.2C12.4 13.4327 10.9673 12 9.2 12C7.43269 12 6 13.4327 6 15.2C6 16.9673 7.43269 18.4 9.2 18.4Z" stroke="#FF8289" stroke-width="1.5" stroke-linecap="round" stroke-linejoin="round"/>
<path d="M13 19L12 18" stroke="#FF8289" stroke-width="1.5" stroke-linecap="round" stroke-linejoin="round"/>
</svg>
