<svg data-v-2d3fc79c="" xmlns="http://www.w3.org/2000/svg" viewBox="0 0 24 24" role="img" width="24" height="24" focusable="false" aria-hidden="true" data-v-cfe1155e=""><path fill="currentColor" fill-rule="evenodd" clip-rule="evenodd" d="M3.61357 3.61343C3.64176 3.65099 3.67294 3.68701 3.7071 3.72118L20.5788 20.5929C20.8728 20.9846 20.8416 21.543 20.4853 21.8993C20.0948 22.2899 19.4616 22.2899 19.0711 21.8993L16.1716 18.9999H5.8C4.28882 18.9999 3.08848 17.7261 3.00467 16.1735L3 15.9999V12.9999H1.96568C1.60932 12.9999 1.43085 12.569 1.68284 12.317L3.71715 10.2827C3.87336 10.1265 4.12663 10.1265 4.28284 10.2827L6.31715 12.317C6.56914 12.569 6.39067 12.9999 6.03431 12.9999H5V15.9999C5 16.529 5.33381 16.9377 5.71205 16.9934L5.8 16.9999H14.1716L2.1005 4.92879C1.70998 4.53826 1.70998 3.9051 2.1005 3.51457C2.49103 3.12405 3.12419 3.12405 3.51472 3.51457L3.61357 3.61343ZM7.81421 4.99985L9.81421 6.99985H19.2L19.2879 7.00633C19.6662 7.06202 20 7.47072 20 7.99985V15.9999L19.9942 16.1197C19.965 16.4194 19.8279 16.6711 19.6419 16.8276L21.0577 18.2433C21.6383 17.6894 22 16.8828 22 15.9999V7.99985L21.9953 7.82624C21.9115 6.27359 20.7112 4.99985 19.2 4.99985H7.81421Z"></path></svg>
