<svg data-v-2d3fc79c="" xmlns="http://www.w3.org/2000/svg" viewBox="0 0 24 24" role="img" width="24" height="24" focusable="false" aria-hidden="true" class="v-icon r-video-repeat" data-v-cfe1155e=""><path fill="white" d="M19.2,5c1.5,0,2.7,1.3,2.8,2.8L22,8v8c0,1.6-1.1,2.9-2.6,3l-0.2,0H5.8c-1.5,0-2.7-1.3-2.8-2.8L3,16l0-3H2c-0.2,0-0.4-0.2-0.4-0.4c0-0.1,0-0.2,0.1-0.3l2-2c0.2-0.2,0.4-0.2,0.6,0l2,2c0.2,0.2,0.2,0.4,0,0.6C6.2,13,6.1,13,6,13H5l0,3c0,0.5,0.3,0.9,0.7,1l0.1,0h13.4c0.4,0,0.7-0.4,0.8-0.9l0-0.1V8c0-0.5-0.3-0.9-0.7-1l-0.1,0H5.8c-0.6,0-1-0.4-1-1s0.4-1,1-1H19.2z M10.5,9.5c0.1-0.2,0.3-0.3,0.5-0.2l0,0l4.2,2.3c0.3,0.2,0.3,0.6,0,0.8l0,0l-4.2,2.3c-0.1,0-0.1,0-0.2,0c-0.2,0-0.4-0.2-0.4-0.4l0,0V9.7C10.5,9.6,10.5,9.5,10.5,9.5z"></path></svg>
