<svg width="20" height="20" viewBox="0 0 20 20" fill="none" xmlns="http://www.w3.org/2000/svg">
<path fill-rule="evenodd" clip-rule="evenodd" d="M10 18C14.4183 18 18 14.4183 18 10C18 5.58172 14.4183 2 10 2C5.58172 2 2 5.58172 2 10C2 14.4183 5.58172 18 10 18ZM10 20C15.5228 20 20 15.5228 20 10C20 4.47715 15.5228 0 10 0C4.47715 0 0 4.47715 0 10C0 15.5228 4.47715 20 10 20Z" fill="white"/>
<path d="M7.60238 14.9992C7.45687 14.9286 9.96731 11.0216 9.88105 10.8499C9.79404 10.6782 7.13209 10.0522 7.00233 9.75051C6.87182 9.44885 12.258 4.91348 12.3997 5.00126C12.5408 5.08903 10.0528 9.0222 10.1203 9.15053C10.1886 9.2783 12.9165 9.9305 12.999 10.2499C13.0823 10.5694 7.74714 15.0697 7.60238 14.9992V14.9992Z" fill="white"/>
</svg>